<svg id="Layer_1" class="md:w-[116px] w-[66px]" data-name="Layer 1" xmlns="http://www.w3.org/2000/svg" viewBox="0 0 1200 400"><defs></defs><g><path class="cls-2" fill="#bf1e2e" d="m707.92,303.87c15.63,0,28.29-1.52,28.29-3.39s-12.67-3.38-28.29-3.38-28.29,1.52-28.29,3.38,12.67,3.39,28.29,3.39Z"></path><path class="cls-3" fill="#ed1c24" d="m691.59,248.22c-2.29,0-4.15-1.86-4.15-4.15v-14.73c0-2.29-1.86-4.15-4.15-4.15-3.48,0-5.41-4.05-3.24-6.75l24.62-30.56c.83-1.02,2.03-1.55,3.24-1.55v-20.52c-27.7,0-50.18,22.46-50.18,50.18,0,38.45,41.26,65.15,50.18,84.17v-51.89h-16.33v-.05Z"></path><path class="cls-2" fill="#bf1e2e" d="m707.9,165.79v20.52c1.19,0,2.41.52,3.24,1.55l24.62,30.56c2.19,2.72.26,6.75-3.24,6.75-2.29,0-4.15,1.86-4.15,4.15v14.73c0,2.29-1.86,4.15-4.15,4.15h-16.33v51.89c8.89-19.43,50.18-42.48,50.18-84.17,0-27.7-22.46-50.18-50.18-50.18v.05Z"></path><path class="cls-2" fill="#bf1e2e" d="m707.91,207.26c-3.69,0-6.68,2.98-6.68,6.67s2.98,6.68,6.68,6.68v-13.35Z"></path><path class="cls-2" fill="#bf1e2e" d="m714.58,213.94c0-3.69-2.98-6.67-6.67-6.67v13.35c3.69,0,6.67-2.98,6.67-6.68Z"></path></g><g><path class="cls-1" fill="#040707" d="m222.11,182.85c-7.59-10.8-18.15-19.2-31.69-25.15-1.24-.54-2.48-1.06-3.76-1.54,10.34-5.32,18.56-12.32,24.65-20.99,7.08-10.06,10.63-21.53,10.63-34.45,0-14.16-3.55-26.44-10.63-36.87-7.08-10.42-17.02-18.55-29.82-24.39-12.8-5.82-27.9-8.75-45.28-8.75H32.62v266.29h110.3c18.14,0,33.97-3.13,47.5-9.32,13.54-6.2,24.1-15.02,31.69-26.44,7.58-11.41,11.37-24.96,11.37-39.85s-3.79-27.75-11.37-38.54ZM68.4,61.61h67.05c15.39,0,27.57,3.67,36.51,10.99,8.94,7.35,13.43,16.81,13.43,29.99s-4.49,23.53-13.43,31.11c-8.94,7.58-21.12,11.37-36.51,11.37h-67.05V61.61Zm114.2,192.58c-9.55,7.94-22.67,11.92-39.31,11.92h-74.89v-90.87h74.89c16.64,0,29.76,3.98,39.31,11.92,9.56,7.94,14.35,19.12,14.35,33.51s-4.79,25.58-14.35,33.51Z"></path><path class="cls-1" fill="#040707" d="m429.7,112.32v184.72h-34.28v-27.98c-6.15,9.93-14.42,17.87-24.8,23.89-11.56,6.7-24.9,10.05-40.04,10.05-22.13,0-39.74-6.58-52.92-19.73-13.16-13.16-19.74-32.16-19.74-57v-113.97h34.66v110.25c0,16.63,4.03,29.25,12.11,37.8,8.06,8.56,19.31,12.85,33.73,12.85,10.19,0,19.62-2.29,28.32-6.89,8.7-4.6,15.9-11.04,21.62-19.36,2.79-4.06,5.02-8.42,6.68-13.11v-121.53h34.66Z"></path><path class="cls-1" fill="#040707" d="m646.54,112.29l-92.04,214.16c-5.72,13.66-12.99,24.22-21.79,31.65-8.81,7.43-21.43,11.18-37.83,11.18h-20.11v-29.06h19.37c7.7,0,14.09-1.93,19.2-5.77,5.1-3.86,9.24-9.48,12.49-16.94l7.82-19.74-79.74-185.48h36.91l60,149.11,60.35-149.11h35.37Z"></path></g><path class="cls-1" d="m1166.91,297.01v.03l.03-.03h-.03Z"></path><g><path class="cls-1" fill="#040707" d="m953.42,244.5l23.49,22.34c-8.94,11.18-20.01,20-33.17,26.44-13.15,6.46-28.07,9.68-44.71,9.68-18.88,0-35.71-4.22-50.49-12.66-14.78-8.44-26.39-20.05-34.85-34.83-8.44-14.78-12.66-31.73-12.66-50.85s4.22-35.69,12.66-50.46c8.44-14.78,20.19-26.44,35.21-35.02,15.02-8.56,31.99-12.85,50.87-12.85,16.4,0,31.11,3.24,44.14,9.68,13.04,6.46,24.03,15.28,32.97,26.44l-23.48,22.34c-5.73-8.7-12.92-15.64-21.63-20.86-8.7-5.22-19.13-7.82-31.3-7.82s-23.41,2.93-32.96,8.75c-9.56,5.84-17.02,13.92-22.36,24.22-5.34,10.3-8.01,22.17-8.01,35.57s2.67,25.27,8.01,35.57c5.34,10.3,12.8,18.38,22.36,24.22,9.56,5.84,20.55,8.75,32.96,8.75s22.91-2.6,31.49-7.82c8.58-5.22,15.71-12.16,21.43-20.86l.02.05Z"></path><path class="cls-1" fill="#040707" d="m1156.12,141.53c-7.2-11.04-17.19-19.69-29.99-25.89-12.8-6.22-28.14-9.32-44.54-9.32s-31.24,2.91-44.53,8.75c-13.28,5.84-25.03,14.09-35.21,24.76l21.62,22.37c7.2-8.44,15.66-15.09,25.34-19.93,9.68-4.84,20.36-7.27,32.04-7.27,16.14,0,28.95,4.29,38.38,12.85,9.44,8.56,14.16,20.17,14.16,34.82h-52.18c-16.64,0-31.42,2.44-44.34,7.27s-23.05,11.8-30.37,20.86c-7.32,9.08-10.99,20.04-10.99,32.96,0,11.42,2.98,21.6,8.94,30.54,5.96,8.94,14.28,15.97,24.96,21.05,10.68,5.08,22.98,7.63,36.9,7.63,16.4,0,30.87-3.37,43.41-10.06,9.94-5.32,18.22-12.18,24.79-20.62v24.72h32.39v-115.45c0-15.66-3.6-28.98-10.79-40.04Zm-28.14,106.88c-5.84,8.56-13.6,15.21-23.28,19.94-9.68,4.72-20.24,7.08-32.42,7.08s-22.05-2.98-29.63-8.94c-7.59-5.97-11.37-13.9-11.37-23.84,0-11.67,5.03-20.31,15.08-25.88,10.06-5.6,22.91-8.39,38.57-8.39h48.46v30.05c-1.46,3.51-3.26,6.84-5.41,9.99Z"></path></g></svg>